%TF.GenerationSoftware,KiCad,Pcbnew,8.0.1-rc1*%
%TF.CreationDate,2026-08-15T00:48:00-04:00*%
%TF.ProjectId,DFM-17 programmer_v3,44464d2d-3137-4207-9072-6f6772616d6d,rev?*%
%TF.SameCoordinates,Original*%
%TF.FileFunction,Soldermask,Bot*%
%TF.FilePolarity,Negative*%
%FSLAX46Y46*%
G04 Gerber Fmt 4.6, Leading zero omitted, Abs format (unit mm)*
G04 Created by KiCad (PCBNEW 8.0.1-rc1) date 2026-08-15 00:48:00*
%MOMM*%
%LPD*%
G01*
G04 APERTURE LIST*
%ADD10C,0.100000*%
%ADD11R,1.700000X1.700000*%
%ADD12O,1.700000X1.700000*%
%ADD13C,1.000000*%
%ADD14R,0.650000X1.100000*%
G04 APERTURE END LIST*
%TO.C,U2*%
D10*
X132700000Y-63250000D02*
X131300000Y-63250000D01*
X131300000Y-64650000D01*
X132700000Y-64650000D01*
X132700000Y-63250000D01*
G36*
X132700000Y-63250000D02*
G01*
X131300000Y-63250000D01*
X131300000Y-64650000D01*
X132700000Y-64650000D01*
X132700000Y-63250000D01*
G37*
%TO.C,U1*%
X131300000Y-52050000D02*
X132700000Y-52050000D01*
X132700000Y-50650000D01*
X131300000Y-50650000D01*
X131300000Y-52050000D01*
G36*
X131300000Y-52050000D02*
G01*
X132700000Y-52050000D01*
X132700000Y-50650000D01*
X131300000Y-50650000D01*
X131300000Y-52050000D01*
G37*
%TD*%
D11*
%TO.C,J1*%
X110500000Y-51800000D03*
D12*
X110500000Y-54340000D03*
X110500000Y-56880000D03*
X110500000Y-59420000D03*
X110500000Y-61960000D03*
X110500000Y-64500000D03*
%TD*%
D13*
%TO.C,U2*%
X128815000Y-62900000D03*
X135185000Y-62900000D03*
D14*
X129460000Y-58750000D03*
X130730000Y-58750000D03*
X132000000Y-58750000D03*
X133270000Y-58750000D03*
X134540000Y-58750000D03*
%TD*%
D13*
%TO.C,U1*%
X135185000Y-52400000D03*
X128815000Y-52400000D03*
D14*
X134540000Y-56550000D03*
X133270000Y-56550000D03*
X132000000Y-56550000D03*
X130730000Y-56550000D03*
X129460000Y-56550000D03*
%TD*%
M02*
