%TF.GenerationSoftware,KiCad,Pcbnew,8.0.1-rc1*%
%TF.CreationDate,2026-08-15T00:47:59-04:00*%
%TF.ProjectId,DFM-17 programmer_v3,44464d2d-3137-4207-9072-6f6772616d6d,rev?*%
%TF.SameCoordinates,Original*%
%TF.FileFunction,Copper,L2,Bot*%
%TF.FilePolarity,Positive*%
%FSLAX46Y46*%
G04 Gerber Fmt 4.6, Leading zero omitted, Abs format (unit mm)*
G04 Created by KiCad (PCBNEW 8.0.1-rc1) date 2026-08-15 00:47:59*
%MOMM*%
%LPD*%
G01*
G04 APERTURE LIST*
%TA.AperFunction,EtchedComponent*%
%ADD10C,0.200000*%
%TD*%
%TA.AperFunction,ComponentPad*%
%ADD11R,1.700000X1.700000*%
%TD*%
%TA.AperFunction,ComponentPad*%
%ADD12O,1.700000X1.700000*%
%TD*%
%TA.AperFunction,SMDPad,CuDef*%
%ADD13R,0.650000X1.100000*%
%TD*%
%TA.AperFunction,Conductor*%
%ADD14C,0.400000*%
%TD*%
%TA.AperFunction,Conductor*%
%ADD15C,0.200000*%
%TD*%
G04 APERTURE END LIST*
%TO.C,U2*%
D10*
X132575000Y-63350000D02*
X131425000Y-63350000D01*
X131425000Y-64550000D01*
X132575000Y-64550000D01*
X132575000Y-63350000D01*
%TA.AperFunction,EtchedComponent*%
G36*
X132575000Y-63350000D02*
G01*
X131425000Y-63350000D01*
X131425000Y-64550000D01*
X132575000Y-64550000D01*
X132575000Y-63350000D01*
G37*
%TD.AperFunction*%
%TO.C,U1*%
X131425000Y-51950000D02*
X132575000Y-51950000D01*
X132575000Y-50750000D01*
X131425000Y-50750000D01*
X131425000Y-51950000D01*
%TA.AperFunction,EtchedComponent*%
G36*
X131425000Y-51950000D02*
G01*
X132575000Y-51950000D01*
X132575000Y-50750000D01*
X131425000Y-50750000D01*
X131425000Y-51950000D01*
G37*
%TD.AperFunction*%
%TD*%
D11*
%TO.P,J1,1,Pin_1*%
%TO.N,Net-(J1-Pin_1)*%
X110500000Y-51800000D03*
D12*
%TO.P,J1,2,Pin_2*%
%TO.N,GND*%
X110500000Y-54340000D03*
%TO.P,J1,3,Pin_3*%
%TO.N,Net-(J1-Pin_3)*%
X110500000Y-56880000D03*
%TO.P,J1,4,Pin_4*%
%TO.N,Net-(J1-Pin_4)*%
X110500000Y-59420000D03*
%TO.P,J1,5,Pin_5*%
%TO.N,Net-(J1-Pin_5)*%
X110500000Y-61960000D03*
%TO.P,J1,6,Pin_6*%
%TO.N,Net-(J1-Pin_6)*%
X110500000Y-64500000D03*
%TD*%
D13*
%TO.P,U2,1,1*%
%TO.N,Net-(J1-Pin_3)*%
X129460000Y-58750000D03*
%TO.P,U2,2,2*%
%TO.N,unconnected-(U2-Pad2)*%
X130730000Y-58750000D03*
%TO.P,U2,3,3*%
%TO.N,Net-(J1-Pin_4)*%
X132000000Y-58750000D03*
%TO.P,U2,4,4*%
%TO.N,Net-(J1-Pin_5)*%
X133270000Y-58750000D03*
%TO.P,U2,5,5*%
%TO.N,Net-(J1-Pin_6)*%
X134540000Y-58750000D03*
%TD*%
%TO.P,U1,1,1*%
%TO.N,Net-(J1-Pin_1)*%
X134540000Y-56550000D03*
%TO.P,U1,2,2*%
%TO.N,GND*%
X133270000Y-56550000D03*
%TO.P,U1,3,3*%
X132000000Y-56550000D03*
%TO.P,U1,4,4*%
%TO.N,unconnected-(U1-Pad4)*%
X130730000Y-56550000D03*
%TO.P,U1,5,5*%
%TO.N,unconnected-(U1-Pad5)*%
X129460000Y-56550000D03*
%TD*%
D14*
%TO.N,Net-(J1-Pin_4)*%
X132000000Y-58975002D02*
X132000000Y-60200000D01*
X111280000Y-60200000D02*
X110500000Y-59420000D01*
D15*
X131999998Y-58975000D02*
X132000000Y-58975002D01*
X131999998Y-58750000D02*
X131999998Y-58975000D01*
D14*
X132000000Y-60200000D02*
X111280000Y-60200000D01*
%TO.N,Net-(J1-Pin_3)*%
X112370000Y-58750000D02*
X110500000Y-56880000D01*
X129459998Y-58750000D02*
X112370000Y-58750000D01*
%TO.N,Net-(J1-Pin_6)*%
X134539998Y-60760002D02*
X133200000Y-62100000D01*
X130400000Y-64500000D02*
X110500000Y-64500000D01*
X130400000Y-62100000D02*
X130400000Y-64500000D01*
X133200000Y-62100000D02*
X130400000Y-62100000D01*
X134539998Y-58750000D02*
X134539998Y-60760002D01*
D15*
%TO.N,GND*%
X131960000Y-56550000D02*
X131960000Y-56325000D01*
D14*
X111310000Y-55150000D02*
X110500000Y-54340000D01*
X130785000Y-55150000D02*
X111310000Y-55150000D01*
X133230000Y-56550000D02*
X131960000Y-56550000D01*
X131960000Y-56325000D02*
X130785000Y-55150000D01*
%TO.N,Net-(J1-Pin_5)*%
X133269998Y-58750000D02*
X133269998Y-60430002D01*
X111260000Y-61200000D02*
X110500000Y-61960000D01*
X132500000Y-61200000D02*
X111260000Y-61200000D01*
X133269998Y-60430002D02*
X132500000Y-61200000D01*
%TO.N,Net-(J1-Pin_1)*%
X132325000Y-54150000D02*
X112850000Y-54150000D01*
X134500000Y-56325000D02*
X132325000Y-54150000D01*
X112850000Y-54150000D02*
X110500000Y-51800000D01*
D15*
X134500000Y-56550000D02*
X134500000Y-56325000D01*
%TD*%
M02*
