%TF.GenerationSoftware,KiCad,Pcbnew,8.0.1-rc1*%
%TF.CreationDate,2026-08-15T00:48:08-04:00*%
%TF.ProjectId,DFM-17 programmer_v3,44464d2d-3137-4207-9072-6f6772616d6d,rev?*%
%TF.SameCoordinates,Original*%
%TF.FileFunction,Drillmap*%
%TF.FilePolarity,Positive*%
%FSLAX45Y45*%
G04 Gerber Fmt 4.5, Leading zero omitted, Abs format (unit mm)*
G04 Created by KiCad (PCBNEW 8.0.1-rc1) date 2026-08-15 00:48:08*
%MOMM*%
%LPD*%
G01*
G04 APERTURE LIST*
%ADD10C,1.550000*%
%ADD11C,0.050000*%
%ADD12C,0.200000*%
%ADD13C,0.100000*%
G04 APERTURE END LIST*
D10*
X14577500Y-5300000D02*
G75*
G02*
X14422500Y-5300000I-77500J0D01*
G01*
X14422500Y-5300000D02*
G75*
G02*
X14577500Y-5300000I77500J0D01*
G01*
X14577500Y-6300000D02*
G75*
G02*
X14422500Y-6300000I-77500J0D01*
G01*
X14422500Y-6300000D02*
G75*
G02*
X14577500Y-6300000I77500J0D01*
G01*
D11*
X14810000Y-6680000D02*
X9741000Y-6681000D01*
X9741000Y-5343000D01*
X9959000Y-5343000D01*
X9959000Y-5141000D01*
X9741000Y-5141000D01*
X9741000Y-4941000D01*
X14810000Y-4940000D01*
X14810000Y-6680000D01*
D12*
D13*
X12831500Y-5190000D02*
X12931500Y-5290000D01*
X12931500Y-5190000D02*
X12831500Y-5290000D01*
X12831500Y-6240000D02*
X12931500Y-6340000D01*
X12931500Y-6240000D02*
X12831500Y-6340000D01*
X13468500Y-5190000D02*
X13568500Y-5290000D01*
X13568500Y-5190000D02*
X13468500Y-5290000D01*
X13468500Y-6240000D02*
X13568500Y-6340000D01*
X13568500Y-6240000D02*
X13468500Y-6340000D01*
D12*
X9999277Y-6994984D02*
X9999277Y-6794984D01*
X9999277Y-6794984D02*
X10046896Y-6794984D01*
X10046896Y-6794984D02*
X10075467Y-6804508D01*
X10075467Y-6804508D02*
X10094515Y-6823555D01*
X10094515Y-6823555D02*
X10104039Y-6842603D01*
X10104039Y-6842603D02*
X10113563Y-6880698D01*
X10113563Y-6880698D02*
X10113563Y-6909269D01*
X10113563Y-6909269D02*
X10104039Y-6947365D01*
X10104039Y-6947365D02*
X10094515Y-6966412D01*
X10094515Y-6966412D02*
X10075467Y-6985460D01*
X10075467Y-6985460D02*
X10046896Y-6994984D01*
X10046896Y-6994984D02*
X9999277Y-6994984D01*
X10199277Y-6994984D02*
X10199277Y-6861650D01*
X10199277Y-6899746D02*
X10208801Y-6880698D01*
X10208801Y-6880698D02*
X10218324Y-6871174D01*
X10218324Y-6871174D02*
X10237372Y-6861650D01*
X10237372Y-6861650D02*
X10256420Y-6861650D01*
X10323086Y-6994984D02*
X10323086Y-6861650D01*
X10323086Y-6794984D02*
X10313563Y-6804508D01*
X10313563Y-6804508D02*
X10323086Y-6814031D01*
X10323086Y-6814031D02*
X10332610Y-6804508D01*
X10332610Y-6804508D02*
X10323086Y-6794984D01*
X10323086Y-6794984D02*
X10323086Y-6814031D01*
X10446896Y-6994984D02*
X10427848Y-6985460D01*
X10427848Y-6985460D02*
X10418324Y-6966412D01*
X10418324Y-6966412D02*
X10418324Y-6794984D01*
X10551658Y-6994984D02*
X10532610Y-6985460D01*
X10532610Y-6985460D02*
X10523086Y-6966412D01*
X10523086Y-6966412D02*
X10523086Y-6794984D01*
X10780229Y-6994984D02*
X10780229Y-6794984D01*
X10780229Y-6794984D02*
X10846896Y-6937841D01*
X10846896Y-6937841D02*
X10913563Y-6794984D01*
X10913563Y-6794984D02*
X10913563Y-6994984D01*
X11094515Y-6994984D02*
X11094515Y-6890222D01*
X11094515Y-6890222D02*
X11084991Y-6871174D01*
X11084991Y-6871174D02*
X11065944Y-6861650D01*
X11065944Y-6861650D02*
X11027848Y-6861650D01*
X11027848Y-6861650D02*
X11008801Y-6871174D01*
X11094515Y-6985460D02*
X11075467Y-6994984D01*
X11075467Y-6994984D02*
X11027848Y-6994984D01*
X11027848Y-6994984D02*
X11008801Y-6985460D01*
X11008801Y-6985460D02*
X10999277Y-6966412D01*
X10999277Y-6966412D02*
X10999277Y-6947365D01*
X10999277Y-6947365D02*
X11008801Y-6928317D01*
X11008801Y-6928317D02*
X11027848Y-6918793D01*
X11027848Y-6918793D02*
X11075467Y-6918793D01*
X11075467Y-6918793D02*
X11094515Y-6909269D01*
X11189753Y-6861650D02*
X11189753Y-7061650D01*
X11189753Y-6871174D02*
X11208801Y-6861650D01*
X11208801Y-6861650D02*
X11246896Y-6861650D01*
X11246896Y-6861650D02*
X11265943Y-6871174D01*
X11265943Y-6871174D02*
X11275467Y-6880698D01*
X11275467Y-6880698D02*
X11284991Y-6899746D01*
X11284991Y-6899746D02*
X11284991Y-6956888D01*
X11284991Y-6956888D02*
X11275467Y-6975936D01*
X11275467Y-6975936D02*
X11265943Y-6985460D01*
X11265943Y-6985460D02*
X11246896Y-6994984D01*
X11246896Y-6994984D02*
X11208801Y-6994984D01*
X11208801Y-6994984D02*
X11189753Y-6985460D01*
X11370705Y-6975936D02*
X11380229Y-6985460D01*
X11380229Y-6985460D02*
X11370705Y-6994984D01*
X11370705Y-6994984D02*
X11361182Y-6985460D01*
X11361182Y-6985460D02*
X11370705Y-6975936D01*
X11370705Y-6975936D02*
X11370705Y-6994984D01*
X11370705Y-6871174D02*
X11380229Y-6880698D01*
X11380229Y-6880698D02*
X11370705Y-6890222D01*
X11370705Y-6890222D02*
X11361182Y-6880698D01*
X11361182Y-6880698D02*
X11370705Y-6871174D01*
X11370705Y-6871174D02*
X11370705Y-6890222D01*
D13*
X9638500Y-7273500D02*
X9738500Y-7373500D01*
X9738500Y-7273500D02*
X9638500Y-7373500D01*
D12*
X10104039Y-7414984D02*
X9989753Y-7414984D01*
X10046896Y-7414984D02*
X10046896Y-7214984D01*
X10046896Y-7214984D02*
X10027848Y-7243555D01*
X10027848Y-7243555D02*
X10008801Y-7262603D01*
X10008801Y-7262603D02*
X9989753Y-7272127D01*
X10189753Y-7395936D02*
X10199277Y-7405460D01*
X10199277Y-7405460D02*
X10189753Y-7414984D01*
X10189753Y-7414984D02*
X10180229Y-7405460D01*
X10180229Y-7405460D02*
X10189753Y-7395936D01*
X10189753Y-7395936D02*
X10189753Y-7414984D01*
X10323086Y-7214984D02*
X10342134Y-7214984D01*
X10342134Y-7214984D02*
X10361182Y-7224508D01*
X10361182Y-7224508D02*
X10370705Y-7234031D01*
X10370705Y-7234031D02*
X10380229Y-7253079D01*
X10380229Y-7253079D02*
X10389753Y-7291174D01*
X10389753Y-7291174D02*
X10389753Y-7338793D01*
X10389753Y-7338793D02*
X10380229Y-7376888D01*
X10380229Y-7376888D02*
X10370705Y-7395936D01*
X10370705Y-7395936D02*
X10361182Y-7405460D01*
X10361182Y-7405460D02*
X10342134Y-7414984D01*
X10342134Y-7414984D02*
X10323086Y-7414984D01*
X10323086Y-7414984D02*
X10304039Y-7405460D01*
X10304039Y-7405460D02*
X10294515Y-7395936D01*
X10294515Y-7395936D02*
X10284991Y-7376888D01*
X10284991Y-7376888D02*
X10275467Y-7338793D01*
X10275467Y-7338793D02*
X10275467Y-7291174D01*
X10275467Y-7291174D02*
X10284991Y-7253079D01*
X10284991Y-7253079D02*
X10294515Y-7234031D01*
X10294515Y-7234031D02*
X10304039Y-7224508D01*
X10304039Y-7224508D02*
X10323086Y-7214984D01*
X10513563Y-7214984D02*
X10532610Y-7214984D01*
X10532610Y-7214984D02*
X10551658Y-7224508D01*
X10551658Y-7224508D02*
X10561182Y-7234031D01*
X10561182Y-7234031D02*
X10570705Y-7253079D01*
X10570705Y-7253079D02*
X10580229Y-7291174D01*
X10580229Y-7291174D02*
X10580229Y-7338793D01*
X10580229Y-7338793D02*
X10570705Y-7376888D01*
X10570705Y-7376888D02*
X10561182Y-7395936D01*
X10561182Y-7395936D02*
X10551658Y-7405460D01*
X10551658Y-7405460D02*
X10532610Y-7414984D01*
X10532610Y-7414984D02*
X10513563Y-7414984D01*
X10513563Y-7414984D02*
X10494515Y-7405460D01*
X10494515Y-7405460D02*
X10484991Y-7395936D01*
X10484991Y-7395936D02*
X10475467Y-7376888D01*
X10475467Y-7376888D02*
X10465944Y-7338793D01*
X10465944Y-7338793D02*
X10465944Y-7291174D01*
X10465944Y-7291174D02*
X10475467Y-7253079D01*
X10475467Y-7253079D02*
X10484991Y-7234031D01*
X10484991Y-7234031D02*
X10494515Y-7224508D01*
X10494515Y-7224508D02*
X10513563Y-7214984D01*
X10704039Y-7214984D02*
X10723086Y-7214984D01*
X10723086Y-7214984D02*
X10742134Y-7224508D01*
X10742134Y-7224508D02*
X10751658Y-7234031D01*
X10751658Y-7234031D02*
X10761182Y-7253079D01*
X10761182Y-7253079D02*
X10770705Y-7291174D01*
X10770705Y-7291174D02*
X10770705Y-7338793D01*
X10770705Y-7338793D02*
X10761182Y-7376888D01*
X10761182Y-7376888D02*
X10751658Y-7395936D01*
X10751658Y-7395936D02*
X10742134Y-7405460D01*
X10742134Y-7405460D02*
X10723086Y-7414984D01*
X10723086Y-7414984D02*
X10704039Y-7414984D01*
X10704039Y-7414984D02*
X10684991Y-7405460D01*
X10684991Y-7405460D02*
X10675467Y-7395936D01*
X10675467Y-7395936D02*
X10665944Y-7376888D01*
X10665944Y-7376888D02*
X10656420Y-7338793D01*
X10656420Y-7338793D02*
X10656420Y-7291174D01*
X10656420Y-7291174D02*
X10665944Y-7253079D01*
X10665944Y-7253079D02*
X10675467Y-7234031D01*
X10675467Y-7234031D02*
X10684991Y-7224508D01*
X10684991Y-7224508D02*
X10704039Y-7214984D01*
X10856420Y-7414984D02*
X10856420Y-7281650D01*
X10856420Y-7300698D02*
X10865944Y-7291174D01*
X10865944Y-7291174D02*
X10884991Y-7281650D01*
X10884991Y-7281650D02*
X10913563Y-7281650D01*
X10913563Y-7281650D02*
X10932610Y-7291174D01*
X10932610Y-7291174D02*
X10942134Y-7310222D01*
X10942134Y-7310222D02*
X10942134Y-7414984D01*
X10942134Y-7310222D02*
X10951658Y-7291174D01*
X10951658Y-7291174D02*
X10970705Y-7281650D01*
X10970705Y-7281650D02*
X10999277Y-7281650D01*
X10999277Y-7281650D02*
X11018325Y-7291174D01*
X11018325Y-7291174D02*
X11027848Y-7310222D01*
X11027848Y-7310222D02*
X11027848Y-7414984D01*
X11123086Y-7414984D02*
X11123086Y-7281650D01*
X11123086Y-7300698D02*
X11132610Y-7291174D01*
X11132610Y-7291174D02*
X11151658Y-7281650D01*
X11151658Y-7281650D02*
X11180229Y-7281650D01*
X11180229Y-7281650D02*
X11199277Y-7291174D01*
X11199277Y-7291174D02*
X11208801Y-7310222D01*
X11208801Y-7310222D02*
X11208801Y-7414984D01*
X11208801Y-7310222D02*
X11218324Y-7291174D01*
X11218324Y-7291174D02*
X11237372Y-7281650D01*
X11237372Y-7281650D02*
X11265943Y-7281650D01*
X11265943Y-7281650D02*
X11284991Y-7291174D01*
X11284991Y-7291174D02*
X11294515Y-7310222D01*
X11294515Y-7310222D02*
X11294515Y-7414984D01*
X11684991Y-7205460D02*
X11513563Y-7462603D01*
X11942134Y-7214984D02*
X11961182Y-7214984D01*
X11961182Y-7214984D02*
X11980229Y-7224508D01*
X11980229Y-7224508D02*
X11989753Y-7234031D01*
X11989753Y-7234031D02*
X11999277Y-7253079D01*
X11999277Y-7253079D02*
X12008801Y-7291174D01*
X12008801Y-7291174D02*
X12008801Y-7338793D01*
X12008801Y-7338793D02*
X11999277Y-7376888D01*
X11999277Y-7376888D02*
X11989753Y-7395936D01*
X11989753Y-7395936D02*
X11980229Y-7405460D01*
X11980229Y-7405460D02*
X11961182Y-7414984D01*
X11961182Y-7414984D02*
X11942134Y-7414984D01*
X11942134Y-7414984D02*
X11923086Y-7405460D01*
X11923086Y-7405460D02*
X11913563Y-7395936D01*
X11913563Y-7395936D02*
X11904039Y-7376888D01*
X11904039Y-7376888D02*
X11894515Y-7338793D01*
X11894515Y-7338793D02*
X11894515Y-7291174D01*
X11894515Y-7291174D02*
X11904039Y-7253079D01*
X11904039Y-7253079D02*
X11913563Y-7234031D01*
X11913563Y-7234031D02*
X11923086Y-7224508D01*
X11923086Y-7224508D02*
X11942134Y-7214984D01*
X12094515Y-7395936D02*
X12104039Y-7405460D01*
X12104039Y-7405460D02*
X12094515Y-7414984D01*
X12094515Y-7414984D02*
X12084991Y-7405460D01*
X12084991Y-7405460D02*
X12094515Y-7395936D01*
X12094515Y-7395936D02*
X12094515Y-7414984D01*
X12227848Y-7214984D02*
X12246896Y-7214984D01*
X12246896Y-7214984D02*
X12265944Y-7224508D01*
X12265944Y-7224508D02*
X12275467Y-7234031D01*
X12275467Y-7234031D02*
X12284991Y-7253079D01*
X12284991Y-7253079D02*
X12294515Y-7291174D01*
X12294515Y-7291174D02*
X12294515Y-7338793D01*
X12294515Y-7338793D02*
X12284991Y-7376888D01*
X12284991Y-7376888D02*
X12275467Y-7395936D01*
X12275467Y-7395936D02*
X12265944Y-7405460D01*
X12265944Y-7405460D02*
X12246896Y-7414984D01*
X12246896Y-7414984D02*
X12227848Y-7414984D01*
X12227848Y-7414984D02*
X12208801Y-7405460D01*
X12208801Y-7405460D02*
X12199277Y-7395936D01*
X12199277Y-7395936D02*
X12189753Y-7376888D01*
X12189753Y-7376888D02*
X12180229Y-7338793D01*
X12180229Y-7338793D02*
X12180229Y-7291174D01*
X12180229Y-7291174D02*
X12189753Y-7253079D01*
X12189753Y-7253079D02*
X12199277Y-7234031D01*
X12199277Y-7234031D02*
X12208801Y-7224508D01*
X12208801Y-7224508D02*
X12227848Y-7214984D01*
X12361182Y-7214984D02*
X12484991Y-7214984D01*
X12484991Y-7214984D02*
X12418325Y-7291174D01*
X12418325Y-7291174D02*
X12446896Y-7291174D01*
X12446896Y-7291174D02*
X12465944Y-7300698D01*
X12465944Y-7300698D02*
X12475467Y-7310222D01*
X12475467Y-7310222D02*
X12484991Y-7329269D01*
X12484991Y-7329269D02*
X12484991Y-7376888D01*
X12484991Y-7376888D02*
X12475467Y-7395936D01*
X12475467Y-7395936D02*
X12465944Y-7405460D01*
X12465944Y-7405460D02*
X12446896Y-7414984D01*
X12446896Y-7414984D02*
X12389753Y-7414984D01*
X12389753Y-7414984D02*
X12370706Y-7405460D01*
X12370706Y-7405460D02*
X12361182Y-7395936D01*
X12580229Y-7414984D02*
X12618325Y-7414984D01*
X12618325Y-7414984D02*
X12637372Y-7405460D01*
X12637372Y-7405460D02*
X12646896Y-7395936D01*
X12646896Y-7395936D02*
X12665944Y-7367365D01*
X12665944Y-7367365D02*
X12675467Y-7329269D01*
X12675467Y-7329269D02*
X12675467Y-7253079D01*
X12675467Y-7253079D02*
X12665944Y-7234031D01*
X12665944Y-7234031D02*
X12656420Y-7224508D01*
X12656420Y-7224508D02*
X12637372Y-7214984D01*
X12637372Y-7214984D02*
X12599277Y-7214984D01*
X12599277Y-7214984D02*
X12580229Y-7224508D01*
X12580229Y-7224508D02*
X12570706Y-7234031D01*
X12570706Y-7234031D02*
X12561182Y-7253079D01*
X12561182Y-7253079D02*
X12561182Y-7300698D01*
X12561182Y-7300698D02*
X12570706Y-7319746D01*
X12570706Y-7319746D02*
X12580229Y-7329269D01*
X12580229Y-7329269D02*
X12599277Y-7338793D01*
X12599277Y-7338793D02*
X12637372Y-7338793D01*
X12637372Y-7338793D02*
X12656420Y-7329269D01*
X12656420Y-7329269D02*
X12665944Y-7319746D01*
X12665944Y-7319746D02*
X12675467Y-7300698D01*
X12846896Y-7281650D02*
X12846896Y-7414984D01*
X12799277Y-7205460D02*
X12751658Y-7348317D01*
X12751658Y-7348317D02*
X12875467Y-7348317D01*
X12942134Y-7214984D02*
X12942134Y-7253079D01*
X13018325Y-7214984D02*
X13018325Y-7253079D01*
X13313563Y-7491174D02*
X13304039Y-7481650D01*
X13304039Y-7481650D02*
X13284991Y-7453079D01*
X13284991Y-7453079D02*
X13275468Y-7434031D01*
X13275468Y-7434031D02*
X13265944Y-7405460D01*
X13265944Y-7405460D02*
X13256420Y-7357841D01*
X13256420Y-7357841D02*
X13256420Y-7319746D01*
X13256420Y-7319746D02*
X13265944Y-7272127D01*
X13265944Y-7272127D02*
X13275468Y-7243555D01*
X13275468Y-7243555D02*
X13284991Y-7224508D01*
X13284991Y-7224508D02*
X13304039Y-7195936D01*
X13304039Y-7195936D02*
X13313563Y-7186412D01*
X13475468Y-7281650D02*
X13475468Y-7414984D01*
X13427848Y-7205460D02*
X13380229Y-7348317D01*
X13380229Y-7348317D02*
X13504039Y-7348317D01*
X13732610Y-7414984D02*
X13732610Y-7214984D01*
X13818325Y-7414984D02*
X13818325Y-7310222D01*
X13818325Y-7310222D02*
X13808801Y-7291174D01*
X13808801Y-7291174D02*
X13789753Y-7281650D01*
X13789753Y-7281650D02*
X13761182Y-7281650D01*
X13761182Y-7281650D02*
X13742134Y-7291174D01*
X13742134Y-7291174D02*
X13732610Y-7300698D01*
X13942134Y-7414984D02*
X13923087Y-7405460D01*
X13923087Y-7405460D02*
X13913563Y-7395936D01*
X13913563Y-7395936D02*
X13904039Y-7376888D01*
X13904039Y-7376888D02*
X13904039Y-7319746D01*
X13904039Y-7319746D02*
X13913563Y-7300698D01*
X13913563Y-7300698D02*
X13923087Y-7291174D01*
X13923087Y-7291174D02*
X13942134Y-7281650D01*
X13942134Y-7281650D02*
X13970706Y-7281650D01*
X13970706Y-7281650D02*
X13989753Y-7291174D01*
X13989753Y-7291174D02*
X13999277Y-7300698D01*
X13999277Y-7300698D02*
X14008801Y-7319746D01*
X14008801Y-7319746D02*
X14008801Y-7376888D01*
X14008801Y-7376888D02*
X13999277Y-7395936D01*
X13999277Y-7395936D02*
X13989753Y-7405460D01*
X13989753Y-7405460D02*
X13970706Y-7414984D01*
X13970706Y-7414984D02*
X13942134Y-7414984D01*
X14123087Y-7414984D02*
X14104039Y-7405460D01*
X14104039Y-7405460D02*
X14094515Y-7386412D01*
X14094515Y-7386412D02*
X14094515Y-7214984D01*
X14275468Y-7405460D02*
X14256420Y-7414984D01*
X14256420Y-7414984D02*
X14218325Y-7414984D01*
X14218325Y-7414984D02*
X14199277Y-7405460D01*
X14199277Y-7405460D02*
X14189753Y-7386412D01*
X14189753Y-7386412D02*
X14189753Y-7310222D01*
X14189753Y-7310222D02*
X14199277Y-7291174D01*
X14199277Y-7291174D02*
X14218325Y-7281650D01*
X14218325Y-7281650D02*
X14256420Y-7281650D01*
X14256420Y-7281650D02*
X14275468Y-7291174D01*
X14275468Y-7291174D02*
X14284991Y-7310222D01*
X14284991Y-7310222D02*
X14284991Y-7329269D01*
X14284991Y-7329269D02*
X14189753Y-7348317D01*
X14361182Y-7405460D02*
X14380230Y-7414984D01*
X14380230Y-7414984D02*
X14418325Y-7414984D01*
X14418325Y-7414984D02*
X14437372Y-7405460D01*
X14437372Y-7405460D02*
X14446896Y-7386412D01*
X14446896Y-7386412D02*
X14446896Y-7376888D01*
X14446896Y-7376888D02*
X14437372Y-7357841D01*
X14437372Y-7357841D02*
X14418325Y-7348317D01*
X14418325Y-7348317D02*
X14389753Y-7348317D01*
X14389753Y-7348317D02*
X14370706Y-7338793D01*
X14370706Y-7338793D02*
X14361182Y-7319746D01*
X14361182Y-7319746D02*
X14361182Y-7310222D01*
X14361182Y-7310222D02*
X14370706Y-7291174D01*
X14370706Y-7291174D02*
X14389753Y-7281650D01*
X14389753Y-7281650D02*
X14418325Y-7281650D01*
X14418325Y-7281650D02*
X14437372Y-7291174D01*
X14513563Y-7491174D02*
X14523087Y-7481650D01*
X14523087Y-7481650D02*
X14542134Y-7453079D01*
X14542134Y-7453079D02*
X14551658Y-7434031D01*
X14551658Y-7434031D02*
X14561182Y-7405460D01*
X14561182Y-7405460D02*
X14570706Y-7357841D01*
X14570706Y-7357841D02*
X14570706Y-7319746D01*
X14570706Y-7319746D02*
X14561182Y-7272127D01*
X14561182Y-7272127D02*
X14551658Y-7243555D01*
X14551658Y-7243555D02*
X14542134Y-7224508D01*
X14542134Y-7224508D02*
X14523087Y-7195936D01*
X14523087Y-7195936D02*
X14513563Y-7186412D01*
X14875468Y-7491174D02*
X14865944Y-7481650D01*
X14865944Y-7481650D02*
X14846896Y-7453079D01*
X14846896Y-7453079D02*
X14837372Y-7434031D01*
X14837372Y-7434031D02*
X14827849Y-7405460D01*
X14827849Y-7405460D02*
X14818325Y-7357841D01*
X14818325Y-7357841D02*
X14818325Y-7319746D01*
X14818325Y-7319746D02*
X14827849Y-7272127D01*
X14827849Y-7272127D02*
X14837372Y-7243555D01*
X14837372Y-7243555D02*
X14846896Y-7224508D01*
X14846896Y-7224508D02*
X14865944Y-7195936D01*
X14865944Y-7195936D02*
X14875468Y-7186412D01*
X14951658Y-7281650D02*
X14951658Y-7414984D01*
X14951658Y-7300698D02*
X14961182Y-7291174D01*
X14961182Y-7291174D02*
X14980230Y-7281650D01*
X14980230Y-7281650D02*
X15008801Y-7281650D01*
X15008801Y-7281650D02*
X15027849Y-7291174D01*
X15027849Y-7291174D02*
X15037372Y-7310222D01*
X15037372Y-7310222D02*
X15037372Y-7414984D01*
X15161182Y-7414984D02*
X15142134Y-7405460D01*
X15142134Y-7405460D02*
X15132611Y-7395936D01*
X15132611Y-7395936D02*
X15123087Y-7376888D01*
X15123087Y-7376888D02*
X15123087Y-7319746D01*
X15123087Y-7319746D02*
X15132611Y-7300698D01*
X15132611Y-7300698D02*
X15142134Y-7291174D01*
X15142134Y-7291174D02*
X15161182Y-7281650D01*
X15161182Y-7281650D02*
X15189753Y-7281650D01*
X15189753Y-7281650D02*
X15208801Y-7291174D01*
X15208801Y-7291174D02*
X15218325Y-7300698D01*
X15218325Y-7300698D02*
X15227849Y-7319746D01*
X15227849Y-7319746D02*
X15227849Y-7376888D01*
X15227849Y-7376888D02*
X15218325Y-7395936D01*
X15218325Y-7395936D02*
X15208801Y-7405460D01*
X15208801Y-7405460D02*
X15189753Y-7414984D01*
X15189753Y-7414984D02*
X15161182Y-7414984D01*
X15284992Y-7281650D02*
X15361182Y-7281650D01*
X15313563Y-7214984D02*
X15313563Y-7386412D01*
X15313563Y-7386412D02*
X15323087Y-7405460D01*
X15323087Y-7405460D02*
X15342134Y-7414984D01*
X15342134Y-7414984D02*
X15361182Y-7414984D01*
X15580230Y-7281650D02*
X15580230Y-7481650D01*
X15580230Y-7291174D02*
X15599277Y-7281650D01*
X15599277Y-7281650D02*
X15637373Y-7281650D01*
X15637373Y-7281650D02*
X15656420Y-7291174D01*
X15656420Y-7291174D02*
X15665944Y-7300698D01*
X15665944Y-7300698D02*
X15675468Y-7319746D01*
X15675468Y-7319746D02*
X15675468Y-7376888D01*
X15675468Y-7376888D02*
X15665944Y-7395936D01*
X15665944Y-7395936D02*
X15656420Y-7405460D01*
X15656420Y-7405460D02*
X15637373Y-7414984D01*
X15637373Y-7414984D02*
X15599277Y-7414984D01*
X15599277Y-7414984D02*
X15580230Y-7405460D01*
X15789753Y-7414984D02*
X15770706Y-7405460D01*
X15770706Y-7405460D02*
X15761182Y-7386412D01*
X15761182Y-7386412D02*
X15761182Y-7214984D01*
X15951658Y-7414984D02*
X15951658Y-7310222D01*
X15951658Y-7310222D02*
X15942134Y-7291174D01*
X15942134Y-7291174D02*
X15923087Y-7281650D01*
X15923087Y-7281650D02*
X15884992Y-7281650D01*
X15884992Y-7281650D02*
X15865944Y-7291174D01*
X15951658Y-7405460D02*
X15932611Y-7414984D01*
X15932611Y-7414984D02*
X15884992Y-7414984D01*
X15884992Y-7414984D02*
X15865944Y-7405460D01*
X15865944Y-7405460D02*
X15856420Y-7386412D01*
X15856420Y-7386412D02*
X15856420Y-7367365D01*
X15856420Y-7367365D02*
X15865944Y-7348317D01*
X15865944Y-7348317D02*
X15884992Y-7338793D01*
X15884992Y-7338793D02*
X15932611Y-7338793D01*
X15932611Y-7338793D02*
X15951658Y-7329269D01*
X16018325Y-7281650D02*
X16094515Y-7281650D01*
X16046896Y-7214984D02*
X16046896Y-7386412D01*
X16046896Y-7386412D02*
X16056420Y-7405460D01*
X16056420Y-7405460D02*
X16075468Y-7414984D01*
X16075468Y-7414984D02*
X16094515Y-7414984D01*
X16237373Y-7405460D02*
X16218325Y-7414984D01*
X16218325Y-7414984D02*
X16180230Y-7414984D01*
X16180230Y-7414984D02*
X16161182Y-7405460D01*
X16161182Y-7405460D02*
X16151658Y-7386412D01*
X16151658Y-7386412D02*
X16151658Y-7310222D01*
X16151658Y-7310222D02*
X16161182Y-7291174D01*
X16161182Y-7291174D02*
X16180230Y-7281650D01*
X16180230Y-7281650D02*
X16218325Y-7281650D01*
X16218325Y-7281650D02*
X16237373Y-7291174D01*
X16237373Y-7291174D02*
X16246896Y-7310222D01*
X16246896Y-7310222D02*
X16246896Y-7329269D01*
X16246896Y-7329269D02*
X16151658Y-7348317D01*
X16418325Y-7414984D02*
X16418325Y-7214984D01*
X16418325Y-7405460D02*
X16399277Y-7414984D01*
X16399277Y-7414984D02*
X16361182Y-7414984D01*
X16361182Y-7414984D02*
X16342134Y-7405460D01*
X16342134Y-7405460D02*
X16332611Y-7395936D01*
X16332611Y-7395936D02*
X16323087Y-7376888D01*
X16323087Y-7376888D02*
X16323087Y-7319746D01*
X16323087Y-7319746D02*
X16332611Y-7300698D01*
X16332611Y-7300698D02*
X16342134Y-7291174D01*
X16342134Y-7291174D02*
X16361182Y-7281650D01*
X16361182Y-7281650D02*
X16399277Y-7281650D01*
X16399277Y-7281650D02*
X16418325Y-7291174D01*
X16494515Y-7491174D02*
X16504039Y-7481650D01*
X16504039Y-7481650D02*
X16523087Y-7453079D01*
X16523087Y-7453079D02*
X16532611Y-7434031D01*
X16532611Y-7434031D02*
X16542134Y-7405460D01*
X16542134Y-7405460D02*
X16551658Y-7357841D01*
X16551658Y-7357841D02*
X16551658Y-7319746D01*
X16551658Y-7319746D02*
X16542134Y-7272127D01*
X16542134Y-7272127D02*
X16532611Y-7243555D01*
X16532611Y-7243555D02*
X16523087Y-7224508D01*
X16523087Y-7224508D02*
X16504039Y-7195936D01*
X16504039Y-7195936D02*
X16494515Y-7186412D01*
M02*
